<?xml version="1.0" encoding="UTF-8"?>
<svg id="Camada_2" data-name="Camada 2" xmlns="http://www.w3.org/2000/svg" viewBox="0 0 1140.03 195.39" xmlns:c2pa="http://c2pa.org/manifest"><metadata><c2pa:manifest>AAAWgmp1bWIAAAAeanVtZGMycGEAEQAQgAAAqgA4m3EDYzJwYQAAABZcanVtYgAAAEdqdW1kYzJtYQARABCAAACqADibcQN1cm46YzJwYTpjYmQyODJmNi1mM2Y2LTQ4MzUtYTMxMy1iZGZhOGU4ZmJmNGUAAAADl2p1bWIAAAApanVtZGMyYXMAEQAQgAAAqgA4m3EDYzJwYS5hc3NlcnRpb25zAAAAALxqdW1iAAAARGp1bWRjYm9yABEAEIAAAKoAOJtxE2MycGEuaW5ncmVkaWVudC52MwAAAAAYYzJzaGoa13rh/9+/iQ/x7zQvFiUAAABwY2JvcqNpZGM6Zm9ybWF0bWltYWdlL3N2Zyt4bWxqaW5zdGFuY2VJRHgseG1wOmlpZDphZGE3MDcwNi1mMDhjLTQ2ODktYjFlMi1iYTNhM2NiMTE3YjVscmVsYXRpb25zaGlwaHBhcmVudE9mAAAB4mp1bWIAAABBanVtZGNib3IAEQAQgAAAqgA4m3ETYzJwYS5hY3Rpb25zLnYyAAAAABhjMnNocjQDjTbsDnpUrA0E4FP7rwAAAZljYm9yomdhY3Rpb25zgqJmYWN0aW9ua2MycGEub3BlbmVkanBhcmFtZXRlcnOha2luZ3JlZGllbnRzgaJjdXJseC1zZWxmI2p1bWJmPWMycGEuYXNzZXJ0aW9ucy9jMnBhLmluZ3JlZGllbnQudjNkaGFzaFggAhFV1zkxtGJlD3chhXWwpMXtPOmilB9/08RSr7FIgsWkZmFjdGlvbngdY29tLmFudGhyb3BpYy5jbGF1ZGUucHJvdmlkZWRqcGFyYW1ldGVyc6F4H2NvbS5hbnRocm9waWMub3JpZ2luLWNvbmZpZGVuY2VndW5rbm93bmtkZXNjcmlwdGlvbnhmQ2xhdWRlIHByb3ZpZGVkIHRoaXMgZmlsZSBhdCB0aGUgcmVxdWVzdCBvZiBhIHVzZXIgYW5kIG1heSBoYXZlIGNyZWF0ZWQgb3IgbW9kaWZpZWQgdGhlIGZpbGUgY29udGVudHMubXNvZnR3YXJlQWdlbnShZG5hbWVmQ2xhdWRlcmFsbEFjdGlvbnNJbmNsdWRlZPUAAADIanVtYgAAAEBqdW1kY2JvcgARABCAAACqADibcRNjMnBhLmhhc2guZGF0YQAAAAAYYzJzaJicvl4FS/Q0xxzq6Z8DbsQAAACAY2JvcqVjYWxnZnNoYTI1NmNwYWRNAAAAAAAAAAAAAAAAAGRoYXNoWCC8bnMa7smLqHjFVW7kEgKui2OPrSP71pC+PuVStyrwZGRuYW1lbmp1bWJmIG1hbmlmZXN0amV4Y2x1c2lvbnOBomVzdGFydBjOZmxlbmd0aBkeBAAAAj5qdW1iAAAAJ2p1bWRjMmNsABEAEIAAAKoAOJtxA2MycGEuY2xhaW0udjIAAAACD2Nib3KlY2FsZ2ZzaGEyNTZpc2lnbmF0dXJleE1zZWxmI2p1bWJmPS9jMnBhL3VybjpjMnBhOmNiZDI4MmY2LWYzZjYtNDgzNS1hMzEzLWJkZmE4ZThmYmY0ZS9jMnBhLnNpZ25hdHVyZWppbnN0YW5jZUlEeCx4bXA6aWlkOjc1ZmYxNGViLTEwZDUtNDU1Zi04OTVlLTk0OTE0YmFiZTEyZXJjcmVhdGVkX2Fzc2VydGlvbnODomN1cmx4LXNlbGYjanVtYmY9YzJwYS5hc3NlcnRpb25zL2MycGEuaW5ncmVkaWVudC52M2RoYXNoWCACEVXXOTG0YmUPdyGFdbCkxe086aKUH3/TxFKvsUiCxaJjdXJseCpzZWxmI2p1bWJmPWMycGEuYXNzZXJ0aW9ucy9jMnBhLmFjdGlvbnMudjJkaGFzaFggejKzTM4T65L6xf4rs5B0viShTtu12635jsyBICd6lJSiY3VybHgpc2VsZiNqdW1iZj1jMnBhLmFzc2VydGlvbnMvYzJwYS5oYXNoLmRhdGFkaGFzaFggJuq9UMiDcXFAIhOlR4w+XVDP6itdFbGhVkFzGwoV7wh0Y2xhaW1fZ2VuZXJhdG9yX2luZm+jZG5hbWVvQW50aHJvcGljIEZpbGVzZ3ZlcnNpb25lMS4wLjBrc3BlY1ZlcnNpb25lMi40LjAAABA4anVtYgAAAChqdW1kYzJjcwARABCAAACqADibcQNjMnBhLnNpZ25hdHVyZQAAABAIY2JvctKEWQISogEmGCFZAgowggIGMIIBjaADAgECAhRA5aAK7sI50L64g/oGQgU9Z1UTADAKBggqhkjOPQQDAzBJMRcwFQYDVQQKEw5BbnRocm9waWMsIFBCQzEuMCwGA1UEAxMlQW50aHJvcGljIENvbnRlbnQgQ3JlZGVudGlhbHMgUm9vdCBDQTAeFw0yNjA4MDcxODQzNTZaFw0yODA4MDYxOTQzNTZaMEQxFzAVBgNVBAoTDkFudGhyb3BpYywgUEJDMSkwJwYDVQQDEyBBbnRocm9waWMgQ2xhdWRlIENvbnRlbnQgU2lnbmluZzBZMBMGByqGSM49AgEGCCqGSM49AwEHA0IABJh6CmvLUBgFFNU0vUKlOVtE6djd17L5SuwX0LemFisBM3dkd/3cyjxFA3Qo5S46fX0/ihY0VZ7mfb9KF703t5OjWDBWMA4GA1UdDwEB/wQEAwIHgDAVBgNVHSUEDjAMBgorBgEEAYPoXgIBMAwGA1UdEwEB/wQCMAAwHwYDVR0jBBgwFoAUzlHiBIFOZFsj+OPEz5o+nMHXXMIwCgYIKoZIzj0EAwMDZwAwZAIwMXMdFJ4BetLLVY7ORuE9noqbbAZOZn/aArXyTwFAZfKrPzxF2vPoJNf1+UCdg1XGAjBwX1zd9WGqYkqmL5SFqw1QySjr1zJfpJM9+1rdDwSPLMOPOjKuiXjoU/pUUeG9RwmhY3BhZFkNngAAAAAAAAAAAAAAAAAAAAAAAAAAAAAAAAAAAAAAAAAAAAAAAAAAAAAAAAAAAAAAAAAAAAAAAAAAAAAAAAAAAAAAAAAAAAAAAAAAAAAAAAAAAAAAAAAAAAAAAAAAAAAAAAAAAAAAAAAAAAAAAAAAAAAAAAAAAAAAAAAAAAAAAAAAAAAAAAAAAAAAAAAAAAAAAAAAAAAAAAAAAAAAAAAAAAAAAAAAAAAAAAAAAAAAAAAAAAAAAAAAAAAAAAAAAAAAAAAAAAAAAAAAAAAAAAAAAAAAAAAAAAAAAAAAAAAAAAAAAAAAAAAAAAAAAAAAAAAAAAAAAAAAAAAAAAAAAAAAAAAAAAAAAAAAAAAAAAAAAAAAAAAAAAAAAAAAAAAAAAAAAAAAAAAAAAAAAAAAAAAAAAAAAAAAAAAAAAAAAAAAAAAAAAAAAAAAAAAAAAAAAAAAAAAAAAAAAAAAAAAAAAAAAAAAAAAAAAAAAAAAAAAAAAAAAAAAAAAAAAAAAAAAAAAAAAAAAAAAAAAAAAAAAAAAAAAAAAAAAAAAAAAAAAAAAAAAAAAAAAAAAAAAAAAAAAAAAAAAAAAAAAAAAAAAAAAAAAAAAAAAAAAAAAAAAAAAAAAAAAAAAAAAAAAAAAAAAAAAAAAAAAAAAAAAAAAAAAAAAAAAAAAAAAAAAAAAAAAAAAAAAAAAAAAAAAAAAAAAAAAAAAAAAAAAAAAAAAAAAAAAAAAAAAAAAAAAAAAAAAAAAAAAAAAAAAAAAAAAAAAAAAAAAAAAAAAAAAAAAAAAAAAAAAAAAAAAAAAAAAAAAAAAAAAAAAAAAAAAAAAAAAAAAAAAAAAAAAAAAAAAAAAAAAAAAAAAAAAAAAAAAAAAAAAAAAAAAAAAAAAAAAAAAAAAAAAAAAAAAAAAAAAAAAAAAAAAAAAAAAAAAAAAAAAAAAAAAAAAAAAAAAAAAAAAAAAAAAAAAAAAAAAAAAAAAAAAAAAAAAAAAAAAAAAAAAAAAAAAAAAAAAAAAAAAAAAAAAAAAAAAAAAAAAAAAAAAAAAAAAAAAAAAAAAAAAAAAAAAAAAAAAAAAAAAAAAAAAAAAAAAAAAAAAAAAAAAAAAAAAAAAAAAAAAAAAAAAAAAAAAAAAAAAAAAAAAAAAAAAAAAAAAAAAAAAAAAAAAAAAAAAAAAAAAAAAAAAAAAAAAAAAAAAAAAAAAAAAAAAAAAAAAAAAAAAAAAAAAAAAAAAAAAAAAAAAAAAAAAAAAAAAAAAAAAAAAAAAAAAAAAAAAAAAAAAAAAAAAAAAAAAAAAAAAAAAAAAAAAAAAAAAAAAAAAAAAAAAAAAAAAAAAAAAAAAAAAAAAAAAAAAAAAAAAAAAAAAAAAAAAAAAAAAAAAAAAAAAAAAAAAAAAAAAAAAAAAAAAAAAAAAAAAAAAAAAAAAAAAAAAAAAAAAAAAAAAAAAAAAAAAAAAAAAAAAAAAAAAAAAAAAAAAAAAAAAAAAAAAAAAAAAAAAAAAAAAAAAAAAAAAAAAAAAAAAAAAAAAAAAAAAAAAAAAAAAAAAAAAAAAAAAAAAAAAAAAAAAAAAAAAAAAAAAAAAAAAAAAAAAAAAAAAAAAAAAAAAAAAAAAAAAAAAAAAAAAAAAAAAAAAAAAAAAAAAAAAAAAAAAAAAAAAAAAAAAAAAAAAAAAAAAAAAAAAAAAAAAAAAAAAAAAAAAAAAAAAAAAAAAAAAAAAAAAAAAAAAAAAAAAAAAAAAAAAAAAAAAAAAAAAAAAAAAAAAAAAAAAAAAAAAAAAAAAAAAAAAAAAAAAAAAAAAAAAAAAAAAAAAAAAAAAAAAAAAAAAAAAAAAAAAAAAAAAAAAAAAAAAAAAAAAAAAAAAAAAAAAAAAAAAAAAAAAAAAAAAAAAAAAAAAAAAAAAAAAAAAAAAAAAAAAAAAAAAAAAAAAAAAAAAAAAAAAAAAAAAAAAAAAAAAAAAAAAAAAAAAAAAAAAAAAAAAAAAAAAAAAAAAAAAAAAAAAAAAAAAAAAAAAAAAAAAAAAAAAAAAAAAAAAAAAAAAAAAAAAAAAAAAAAAAAAAAAAAAAAAAAAAAAAAAAAAAAAAAAAAAAAAAAAAAAAAAAAAAAAAAAAAAAAAAAAAAAAAAAAAAAAAAAAAAAAAAAAAAAAAAAAAAAAAAAAAAAAAAAAAAAAAAAAAAAAAAAAAAAAAAAAAAAAAAAAAAAAAAAAAAAAAAAAAAAAAAAAAAAAAAAAAAAAAAAAAAAAAAAAAAAAAAAAAAAAAAAAAAAAAAAAAAAAAAAAAAAAAAAAAAAAAAAAAAAAAAAAAAAAAAAAAAAAAAAAAAAAAAAAAAAAAAAAAAAAAAAAAAAAAAAAAAAAAAAAAAAAAAAAAAAAAAAAAAAAAAAAAAAAAAAAAAAAAAAAAAAAAAAAAAAAAAAAAAAAAAAAAAAAAAAAAAAAAAAAAAAAAAAAAAAAAAAAAAAAAAAAAAAAAAAAAAAAAAAAAAAAAAAAAAAAAAAAAAAAAAAAAAAAAAAAAAAAAAAAAAAAAAAAAAAAAAAAAAAAAAAAAAAAAAAAAAAAAAAAAAAAAAAAAAAAAAAAAAAAAAAAAAAAAAAAAAAAAAAAAAAAAAAAAAAAAAAAAAAAAAAAAAAAAAAAAAAAAAAAAAAAAAAAAAAAAAAAAAAAAAAAAAAAAAAAAAAAAAAAAAAAAAAAAAAAAAAAAAAAAAAAAAAAAAAAAAAAAAAAAAAAAAAAAAAAAAAAAAAAAAAAAAAAAAAAAAAAAAAAAAAAAAAAAAAAAAAAAAAAAAAAAAAAAAAAAAAAAAAAAAAAAAAAAAAAAAAAAAAAAAAAAAAAAAAAAAAAAAAAAAAAAAAAAAAAAAAAAAAAAAAAAAAAAAAAAAAAAAAAAAAAAAAAAAAAAAAAAAAAAAAAAAAAAAAAAAAAAAAAAAAAAAAAAAAAAAAAAAAAAAAAAAAAAAAAAAAAAAAAAAAAAAAAAAAAAAAAAAAAAAAAAAAAAAAAAAAAAAAAAAAAAAAAAAAAAAAAAAAAAAAAAAAAAAAAAAAAAAAAAAAAAAAAAAAAAAAAAAAAAAAAAAAAAAAAAAAAAAAAAAAAAAAAAAAAAAAAAAAAAAAAAAAAAAAAAAAAAAAAAAAAAAAAAAAAAAAAAAAAAAAAAAAAAAAAAAAAAAAAAAAAAAAAAAAAAAAAAAAAAAAAAAAAAAAAAAAAAAAAAAAAAAAAAAAAAAAAAAAAAAAAAAAAAAAAAAAAAAAAAAAAAAAAAAAAAAAAAAAAAAAAAAAAAAAAAAAAAAAAAAAAAAAAAAAAAAAAAAAAAAAAAAAAAAAAAAAAAAAAAAAAAAAAAAAAAAAAAAAAAAAAAAAAAAAAAAAAAAAAAAAAAAAAAAAAAAAAAAAAAAAAAAAAAAAAAAAAAAAAAAAAAAAAAAAAAAAAAAAAAAAAAAAAAAAAAAAAAAAAAAAAAAAAAAAAAAAAAAAAAAAAAAAAAAAAAAAAAAAAAAAAAAAAAAAAAAAAAAAAAAAAAAAAAAAAAAAAAAAAAAAAAAAAAAAAAAAAAAAAAAAAAAAAAAAAAAAAAAAAAAAAAAAAAAAAAAAAAAAAAAAAAAAAAAAAAAAAAAAAAAAAAAAAAAAAAAAAAAAAAAAAAAAAAAAAAAAAAAAAAAAAAAAAAAAAAAAAAAAAAAAAAAAAAAAAAAAAAAAAAAAAAAAAAAAAAAAAAAAAAAAAAAAAAAAAAAAAAAAAAAAAAAAAAAAAAAAAAAAAAAAAAAAAAAAAAAAAAAAAAAAAAAAAAAAAAAAAAAAAAAAAAAAAAAAAAAAAAAAAAAAAAAAAAAAAAAAAAAAAAAAAAAAAAAAAAAAAAAAAAAAAAAAAAAAAAAAAAAAAAAAAAAAAAAAAAAAAAAAAAAAAAAAAAAAAAAAAAAAAAAAAAAAAAAAAAAAAAAAAAAAAAAAAAAAAAAAAAAAAAAAAAAAAAAAAAAAAAAAAAAAAAAAAAAAAAAAAAAAAAAAAAAAAAAAAAAAAAAAAAAAAAAAAAAAAAAAAAAAAAAAAAAAAAAAAAAAAAAAAAAAAAAAAAAAAAAAAAAAAAAAAAAAAAAAAAAAAAAAAAAAAAAAAAAAAAAAAAAAAAAAAAAAAAAAAAAAAAAAAAAAAAAAAAAAAAAAAAAAAAAAAAAAAAAAAAAAAAAAAAAAAAAAAAAAAAAAAAAAAAAAAAAAAAAAAAAAAAAAAAAAAAAAAAAAAAAAAAAAAAAAAAAAAAAAAAAAAAAAAAAAAAAAAAAAAAAAAAAAAAAAAAAAAAAAAAAAAAAAAAAAAAAAAAAAAAAAAAAAAAAAAAAAAAAAAAAAAAAAAAAAAAAAAAAAAAAAAAAAAAAAAAAAAAAAAAAAAAAAAAAAAAAAAAAAAAAAAAAAAAAAAAAAAAAAAAAAAAAAAAAAAAAAAAAAAAAAAAAAAAAAAAAAAAAAAAAAAAAAAAAAAAAAAAAAAAAAAAAAAAAAAAAAAAAAAAAAAAAAAAAAAAAAAAAAAAAAAAAAAAAAAAAAAAAAAAAAAAAAAAAAAAAAAAAAAAAAAAAAAAAAAAAAAAAAAAAAAAAAAAAAAAAAAAAAAAAAAAAAAAAAAAAAAAAAAAAAAAAAAAAAAAAAAAAAAAAAAAAAAAAAAAAAAAAAAAAAAAAAAAAAAAAAAAAAAAAAAAAAAAAPZYQL/0D+Ig/M7K0Ix/yUuXfoUYnyl1vh8jVOKsvQ5ynnW6Amh6Y9Vj+9w78pMCIqvjXc8fwMtP47sw3AD01bkKhHA=</c2pa:manifest></metadata>
  <defs>
    <style>
      .cls-1 {
        fill: #483729;
      }
    </style>
  </defs>
  <g id="Camada_1-2" data-name="Camada 1">
    <g>
      <path class="cls-1" d="M150.21,114.37c-6.56-8.28-16.28-14.18-28.9-17.53l-16.17-4.3,16.22-4.16c10.39-2.68,18.35-7.38,23.65-14,4.91-6.11,7.58-13.91,7.93-23.15V0h-26.8v45.96c.04.96.06,1.93.06,2.83s-.01,1.76-.05,2.62c-.45,13.43-4.56,23.56-12.2,30.15-7.94,6.82-20.51,10.28-37.32,10.28h-27.91v3.95h27.3c18.59,0,32.76,4.36,42.1,12.95,9.47,8.66,14.26,21.88,14.26,39.32,0,14.69-4.24,25.71-12.58,32.74-8.12,6.85-20.86,10.32-37.87,10.32l-38.29.04v4.22h48.41c23.52,0,41.01-4.18,52.03-12.41,10.63-7.98,16.01-20.55,16.01-37.33,0-12.51-3.32-23.04-9.88-31.28ZM102.3,0H0v195.33h25.89v.06h2.85v-26.69l-.06-157.33h73.61V0Z"/>
      <g>
        <g>
          <path class="cls-1" d="M349.45,134.37h12.64c3.17,0,5.98.63,8.44,1.89,2.46,1.26,4.36,3.02,5.72,5.29,1.36,2.27,2.03,4.88,2.03,7.82s-.68,5.55-2.03,7.82c-1.36,2.27-3.26,4.03-5.72,5.29-2.46,1.26-5.27,1.89-8.44,1.89h-12.64v-29.99ZM361.83,160.63c2.43,0,4.56-.47,6.41-1.41,1.84-.94,3.26-2.26,4.26-3.96,1-1.7,1.5-3.66,1.5-5.89s-.5-4.19-1.5-5.89c-1-1.7-2.42-3.02-4.26-3.96-1.84-.94-3.98-1.41-6.41-1.41h-8.1v22.54h8.1Z"/>
          <path class="cls-1" d="M432.49,160.63v3.73h-21.77v-29.99h21.17v3.73h-16.88v9.21h15.04v3.64h-15.04v9.68h17.48Z"/>
          <path class="cls-1" d="M485.36,164.36l-6.47-9.21c-.8.06-1.43.09-1.89.09h-7.41v9.13h-4.28v-29.99h11.7c3.88,0,6.94.93,9.17,2.79,2.23,1.86,3.34,4.41,3.34,7.67,0,2.31-.57,4.28-1.71,5.91-1.14,1.63-2.77,2.81-4.88,3.56l7.11,10.07h-4.67ZM483.09,149.83c1.43-1.17,2.14-2.84,2.14-5.01s-.71-3.84-2.14-4.99c-1.43-1.16-3.5-1.73-6.21-1.73h-7.28v13.5h7.28c2.71,0,4.78-.59,6.21-1.76Z"/>
          <path class="cls-1" d="M550.14,164.36l-.04-21.85-10.84,18.21h-1.97l-10.84-18.08v21.72h-4.11v-29.99h3.51l12.51,21.08,12.34-21.08h3.51l.04,29.99h-4.11Z"/>
          <path class="cls-1" d="M608.24,156.86h-15.94l-3.3,7.5h-4.41l13.58-29.99h4.24l13.63,29.99h-4.5l-3.3-7.5ZM606.74,153.43l-6.47-14.7-6.47,14.7h12.94Z"/>
          <path class="cls-1" d="M650.83,138.1h-10.28v-3.73h24.81v3.73h-10.28v26.26h-4.24v-26.26Z"/>
          <path class="cls-1" d="M700.83,162.71c-2.43-1.33-4.33-3.16-5.72-5.51-1.39-2.34-2.08-4.96-2.08-7.84s.69-5.5,2.08-7.84c1.39-2.34,3.29-4.18,5.72-5.51,2.43-1.33,5.16-1.99,8.18-1.99s5.71.66,8.14,1.99c2.43,1.33,4.33,3.16,5.7,5.48,1.37,2.33,2.06,4.95,2.06,7.86s-.69,5.53-2.06,7.86c-1.37,2.33-3.27,4.16-5.7,5.49-2.43,1.33-5.14,1.99-8.14,1.99s-5.76-.66-8.18-1.99ZM714.95,159.39c1.76-1,3.14-2.38,4.16-4.13,1.01-1.76,1.52-3.72,1.52-5.89s-.51-4.13-1.52-5.89c-1.01-1.76-2.4-3.13-4.16-4.13-1.76-1-3.74-1.5-5.93-1.5s-4.19.5-5.98,1.5c-1.79,1-3.19,2.38-4.2,4.13-1.01,1.76-1.52,3.72-1.52,5.89s.51,4.13,1.52,5.89c1.01,1.76,2.41,3.14,4.2,4.13,1.78,1,3.78,1.5,5.98,1.5s4.18-.5,5.93-1.5Z"/>
          <path class="cls-1" d="M757.35,134.37h4.28v26.27h16.24v3.73h-20.52v-29.99Z"/>
          <path class="cls-1" d="M813.48,162.71c-2.43-1.33-4.33-3.16-5.72-5.51-1.39-2.34-2.08-4.96-2.08-7.84s.69-5.5,2.08-7.84c1.39-2.34,3.29-4.18,5.72-5.51,2.43-1.33,5.16-1.99,8.18-1.99s5.71.66,8.14,1.99c2.43,1.33,4.33,3.16,5.7,5.48,1.37,2.33,2.06,4.95,2.06,7.86s-.69,5.53-2.06,7.86c-1.37,2.33-3.27,4.16-5.7,5.49-2.43,1.33-5.14,1.99-8.14,1.99s-5.76-.66-8.18-1.99ZM827.59,159.39c1.76-1,3.14-2.38,4.16-4.13,1.01-1.76,1.52-3.72,1.52-5.89s-.51-4.13-1.52-5.89c-1.01-1.76-2.4-3.13-4.16-4.13-1.76-1-3.74-1.5-5.93-1.5s-4.19.5-5.98,1.5c-1.79,1-3.19,2.38-4.2,4.13-1.01,1.76-1.52,3.72-1.52,5.89s.51,4.13,1.52,5.89c1.01,1.76,2.41,3.14,4.2,4.13,1.78,1,3.78,1.5,5.98,1.5s4.18-.5,5.93-1.5Z"/>
          <path class="cls-1" d="M890.77,149.19h4.11v11.7c-1.49,1.23-3.21,2.17-5.18,2.83-1.97.66-4.03.98-6.17.98-3.03,0-5.76-.66-8.18-1.99-2.43-1.33-4.33-3.16-5.72-5.49-1.39-2.33-2.08-4.95-2.08-7.86s.69-5.54,2.08-7.88c1.39-2.34,3.3-4.17,5.74-5.49,2.44-1.31,5.19-1.97,8.25-1.97,2.4,0,4.58.39,6.53,1.18,1.96.79,3.62,1.94,4.99,3.45l-2.66,2.66c-2.4-2.31-5.3-3.47-8.7-3.47-2.29,0-4.34.49-6.15,1.48-1.81.98-3.24,2.36-4.26,4.11-1.03,1.76-1.54,3.74-1.54,5.93s.51,4.13,1.54,5.89c1.03,1.76,2.45,3.14,4.26,4.13,1.81,1,3.85,1.5,6.11,1.5,2.68,0,5.03-.64,7.03-1.93v-9.77Z"/>
          <path class="cls-1" d="M928.95,134.37h4.28v29.99h-4.28v-29.99Z"/>
          <path class="cls-1" d="M987.22,156.86h-15.94l-3.3,7.5h-4.41l13.58-29.99h4.24l13.63,29.99h-4.5l-3.3-7.5ZM985.72,153.43l-6.47-14.7-6.47,14.7h12.94Z"/>
        </g>
        <g>
          <path class="cls-1" d="M248.71,69.04c-.61-1.51-1.47-2.84-2.57-3.98-1.11-1.12-2.46-2.07-4.02-2.81-1.57-.74-3.36-1.27-5.33-1.57l-.35-.04v-.8l.24-.12c1.98-.94,3.63-1.89,4.92-2.8,1.28-.89,2.3-1.84,3.07-2.84.75-.98,1.28-2.07,1.57-3.23.3-1.18.45-2.54.45-4.06,0-1.96-.48-3.77-1.44-5.4-.96-1.63-2.33-3.06-4.06-4.23-1.75-1.18-3.89-2.11-6.34-2.75-2.44-.65-5.16-.98-8.09-.98h-.06l-22.26.05.09,55.48,25.87-.04c2.95,0,5.64-.39,8-1.18,2.36-.78,4.4-1.84,6.06-3.18s2.95-2.92,3.83-4.71c.89-1.79,1.33-3.73,1.33-5.78,0-1.81-.31-3.5-.91-5.01ZM221.3,36.33c2.89.01,5.35.25,7.4.76,2.07.52,3.8,1.28,5.16,2.27,1.37,1,2.39,2.21,3.05,3.62.65,1.39.98,2.96.98,4.65.01,1.57-.26,3.06-.8,4.43-.55,1.37-1.36,2.56-2.42,3.55-1.06.98-2.36,1.77-3.88,2.33-1.51.55-3.26.83-5.19.83l-12.49.02-.03-22.46h8.23ZM239.27,78.96c-.66,1.38-1.69,2.6-3.06,3.58-1.35.98-3.08,1.75-5.15,2.29-2.05.53-4.49.8-7.26.81h-10.66s-.05-24.19-.05-24.19h10.37c3.02-.04,5.68.31,7.79.97,2.14.66,3.89,1.59,5.22,2.73,1.34,1.16,2.32,2.55,2.91,4.14.57,1.57.88,3.29.88,5.12,0,1.64-.33,3.18-.99,4.56Z"/>
          <path class="cls-1" d="M278.23,33.34h-8.62s.09,55.51.09,55.51l8.63-.02-.1-55.48Z"/>
          <path class="cls-1" d="M323.43,31.99h-1.84l-26.66,56.81h3.83s8.85-18.8,8.85-18.8l24.71-.05,8.61,18.76h8.71s-26.22-56.73-26.22-56.73ZM308.86,67.19l11.16-23.74,10.94,23.7-22.1.05Z"/>
          <path class="cls-1" d="M412.08,33.11h-3.32l.07,41.22h-1.03l-.13-.15-36.85-41h-4.7s.09,55.49.09,55.49h3.45l-.08-44.49h.96l.12.15,39.92,45.59h1.6l-.09-56.81Z"/>
          <path class="cls-1" d="M486.02,73.79c-.78,1.46-1.74,2.93-2.89,4.36-1.26,1.56-2.7,2.98-4.28,4.23-1.6,1.26-3.35,2.28-5.22,3.07-1.89.79-3.87,1.18-5.89,1.19h-.04c-3.34,0-6.48-.58-9.34-1.74-2.87-1.16-5.41-2.86-7.52-5.06-2.11-2.19-3.8-4.91-5-8.07-1.21-3.16-1.83-6.78-1.83-10.75-.01-4,.6-7.65,1.81-10.84,1.21-3.2,2.91-5.96,5.05-8.2,2.14-2.25,4.68-4,7.54-5.22,2.87-1.2,5.99-1.82,9.3-1.83h.03c3.86,0,7.32,1.09,10.29,3.24,2.87,2.07,5.5,5.34,7.82,9.72l3.38-2.25c-1.1-1.74-2.42-3.44-3.92-5.04-1.6-1.71-3.45-3.23-5.49-4.53-2.05-1.3-4.35-2.36-6.84-3.15-2.46-.79-5.21-1.18-8.13-1.18h-.06c-3.09,0-6.04.37-8.77,1.08-2.72.72-5.26,1.74-7.56,3.04-2.29,1.29-4.37,2.87-6.19,4.65-1.82,1.8-3.37,3.8-4.63,5.96-1.27,2.15-2.24,4.49-2.9,6.95-.66,2.46-1,5.03-.99,7.6,0,3.9.74,7.63,2.21,11.12,1.46,3.49,3.55,6.57,6.23,9.17,2.66,2.61,5.92,4.7,9.67,6.23,3.72,1.52,7.93,2.28,12.5,2.28h.06c3.18-.01,6.09-.4,8.66-1.18,2.56-.79,4.9-1.86,6.94-3.17,2.03-1.33,3.86-2.87,5.41-4.58,1.46-1.61,2.75-3.31,3.84-5.05l-3.25-2.07Z"/>
          <path class="cls-1" d="M532.38,31.64h-1.84l-26.66,56.81h3.82s8.85-18.8,8.85-18.8l24.71-.05,8.61,18.76h8.71s-26.21-56.73-26.21-56.73ZM517.81,66.84l11.16-23.74,10.93,23.71-22.09.03Z"/>
          <path class="cls-1" d="M651.03,48.62c-1.57-3.44-3.95-6.53-7.06-9.2-2.72-2.32-6.17-4.02-10.25-5.07-4.07-1.05-9.01-1.57-14.65-1.57h-.16l-18.35.02.09,55.49,20.61-.03c5.16-.01,9.8-.76,13.81-2.25,3.98-1.48,7.38-3.53,10.08-6.07,2.7-2.54,4.77-5.57,6.17-8.97,1.39-3.43,2.1-7.13,2.09-11.02-.01-4.08-.81-7.89-2.38-11.33ZM641.35,70.81c-1.21,3.06-2.9,5.67-5,7.78-2.11,2.1-4.63,3.71-7.48,4.78-2.83,1.07-5.89,1.61-9.11,1.61l-10.49.02-.08-48.89h10.52s.06-.01.06-.01c3.36,0,6.51.58,9.35,1.75,2.86,1.17,5.36,2.84,7.43,4.97,2.08,2.12,3.71,4.69,4.87,7.63,1.15,2.93,1.73,6.21,1.74,9.72,0,4-.61,7.58-1.82,10.64Z"/>
          <path class="cls-1" d="M713.02,85.29l-29.69.04-.04-26.07,19.88-.03v-2.81l-19.88.03-.03-20.98,29.69-.04v-2.81s-38.33.06-38.33.06l.09,55.49,38.33-.07v-2.81Z"/>
          <path class="cls-1" d="M793.59,32.49l-36.11.06.09,55.48h8.62s-.04-28.89-.04-28.89l19.88-.03v-2.81l-19.88.03-.05-20.98,27.49-.04v-2.81Z"/>
          <path class="cls-1" d="M835.27,60.75l.62-.16c1.99-.49,3.84-1.19,5.51-2.07,1.65-.88,3.08-1.92,4.24-3.11,1.17-1.19,2.08-2.55,2.72-4.02.63-1.47.96-3.07.96-4.76-.01-2.06-.44-3.97-1.27-5.7-.83-1.73-2.09-3.25-3.72-4.5-1.65-1.26-3.76-2.25-6.24-2.96-2.48-.7-5.41-1.06-8.69-1.06h-.08l-19.11.03.09,55.49,8.62-.02-.05-26.47h7.26s19.63,26.43,19.63,26.43l9.95-.02-20.44-27.12ZM824.77,59.45h-5.9s-.03-24.32-.03-24.32l8.75-.02h.02c1.77,0,3.41.29,4.9.88,1.51.58,2.83,1.39,3.92,2.44,1.1,1.03,1.97,2.3,2.57,3.77.6,1.46.91,3.09.91,4.83,0,1.9-.38,3.64-1.14,5.16-.76,1.53-1.84,2.84-3.19,3.91-1.35,1.06-2.97,1.89-4.8,2.47-1.83.58-3.86.88-6.01.88Z"/>
          <path class="cls-1" d="M893.59,31.05h-1.84l-26.66,56.81h3.82s8.85-18.8,8.85-18.8l24.71-.04,8.61,18.76h8.71s-26.21-56.73-26.21-56.73ZM879.02,66.24l11.16-23.73,10.93,23.7-22.09.03Z"/>
          <path class="cls-1" d="M982.24,32.17h-3.33l.07,41.22h-1.03l-.12-.15-36.85-41h-4.7s.09,55.49.09,55.49h3.44l-.07-44.49h.96l.12.15,39.92,45.59h1.6s-.09-56.81-.09-56.81Z"/>
          <path class="cls-1" d="M1056.17,72.85c-.76,1.46-1.73,2.93-2.88,4.35-1.26,1.56-2.7,2.99-4.29,4.24-1.59,1.26-3.34,2.28-5.21,3.06-1.89.79-3.87,1.19-5.9,1.19h-.04c-3.33,0-6.46-.58-9.33-1.73-2.88-1.16-5.41-2.87-7.52-5.06s-3.8-4.91-5.01-8.07c-1.2-3.16-1.82-6.78-1.83-10.75,0-4,.61-7.65,1.82-10.84,1.21-3.2,2.91-5.96,5.05-8.21,2.14-2.24,4.67-3.99,7.54-5.21,2.87-1.2,5.99-1.82,9.29-1.83h.04c3.85,0,7.31,1.09,10.29,3.23,2.87,2.07,5.5,5.34,7.82,9.72l3.38-2.24c-1.1-1.74-2.43-3.44-3.92-5.04-1.61-1.71-3.45-3.24-5.5-4.53-2.03-1.3-4.34-2.36-6.82-3.16-2.47-.78-5.21-1.17-8.14-1.17h-.04c-3.09,0-6.05.37-8.77,1.08-2.73.72-5.27,1.73-7.57,3.04-2.28,1.29-4.37,2.87-6.18,4.65-1.82,1.8-3.38,3.8-4.64,5.96s-2.24,4.5-2.9,6.95c-.66,2.46-.99,5.03-.99,7.6.01,3.89.75,7.63,2.21,11.12,1.46,3.49,3.56,6.57,6.23,9.17,2.68,2.61,5.92,4.7,9.67,6.22,3.72,1.52,7.94,2.29,12.5,2.29h.07c3.17-.01,6.08-.4,8.65-1.19,2.57-.78,4.9-1.84,6.95-3.17,2.03-1.32,3.86-2.86,5.41-4.56,1.46-1.61,2.75-3.31,3.84-5.05l-3.26-2.07Z"/>
          <path class="cls-1" d="M1138.95,51.7c-.71-2.44-1.74-4.74-3.06-6.86-1.33-2.1-2.93-4.06-4.77-5.79-1.84-1.73-3.92-3.24-6.18-4.47-2.27-1.24-4.74-2.2-7.36-2.88-2.61-.67-5.36-1.01-8.21-1.01h-.06c-2.87,0-5.66.35-8.26,1.03-2.62.69-5.08,1.66-7.33,2.91-2.26,1.24-4.33,2.75-6.18,4.49-1.84,1.74-3.44,3.7-4.73,5.81-1.3,2.11-2.33,4.42-3.02,6.87-.71,2.44-1.06,5.01-1.06,7.66.01,4.02.81,7.86,2.38,11.4,1.57,3.54,3.77,6.68,6.51,9.33,2.74,2.65,6.01,4.77,9.74,6.28,3.7,1.52,7.74,2.29,12,2.29h.06c2.87-.01,5.64-.37,8.26-1.07,2.61-.7,5.08-1.7,7.35-2.98,2.26-1.28,4.33-2.84,6.17-4.62,1.83-1.79,3.43-3.79,4.74-5.96,1.32-2.17,2.34-4.53,3.05-7.02.7-2.5,1.06-5.1,1.05-7.77,0-2.64-.36-5.22-1.08-7.66ZM1128.45,70.27c-.87,3.33-2.17,6.24-3.89,8.68-1.72,2.45-3.88,4.4-6.4,5.77-2.53,1.37-5.48,2.08-8.76,2.08h-.05c-3.32,0-6.28-.69-8.8-2.05-2.53-1.37-4.69-3.31-6.4-5.76-1.72-2.43-3.02-5.35-3.89-8.67-.85-3.29-1.29-6.96-1.3-10.89,0-3.89.43-7.52,1.27-10.77.85-3.26,2.15-6.12,3.86-8.49,1.71-2.38,3.86-4.26,6.39-5.58,2.52-1.32,5.5-1.99,8.84-2h.03c3.27,0,6.21.66,8.72,1.97,2.53,1.32,4.69,3.18,6.42,5.55,1.72,2.36,3.05,5.22,3.92,8.48.88,3.25,1.33,6.87,1.33,10.77.01,3.93-.43,7.6-1.29,10.91Z"/>
        </g>
      </g>
    </g>
  </g>
</svg>